<svg width="748" height="748" viewBox="0 0 748 748" fill="none" xmlns="http://www.w3.org/2000/svg">
<g clip-path="url(#clip0_356_1163)">
<rect y="0.362793" width="747.946" height="747.946" rx="67.9951" fill="#D9D9D9"/>
<rect y="0.362793" width="747.946" height="747.946" rx="67.9951" fill="url(#paint0_linear_356_1163)"/>
<g style="mix-blend-mode:soft-light" filter="url(#filter0_d_356_1163)">
<g clip-path="url(#clip1_356_1163)">
<rect x="80.3564" y="80.7202" width="593.412" height="593.412" rx="36.7541" fill="black" fill-opacity="0.01" shape-rendering="crispEdges"/>
<g style="mix-blend-mode:soft-light" clip-path="url(#clip2_356_1163)">
<line x1="84.9571" y1="80" x2="84.957" y2="674" stroke="white" stroke-opacity="0.41" stroke-width="9.9141"/>
<line x1="108.751" y1="80" x2="108.751" y2="674" stroke="white" stroke-opacity="0.41" stroke-width="9.9141"/>
<line x1="132.545" y1="80" x2="132.545" y2="674" stroke="white" stroke-opacity="0.41" stroke-width="9.9141"/>
<line x1="156.339" y1="80" x2="156.339" y2="674" stroke="white" stroke-opacity="0.41" stroke-width="9.9141"/>
<line x1="180.133" y1="80" x2="180.133" y2="674" stroke="white" stroke-opacity="0.41" stroke-width="9.9141"/>
<line x1="203.927" y1="80" x2="203.927" y2="674" stroke="white" stroke-opacity="0.41" stroke-width="9.9141"/>
<line x1="227.721" y1="80" x2="227.721" y2="674" stroke="white" stroke-opacity="0.41" stroke-width="9.9141"/>
<line x1="251.514" y1="80" x2="251.514" y2="674" stroke="white" stroke-opacity="0.41" stroke-width="9.9141"/>
<line x1="275.308" y1="80" x2="275.308" y2="674" stroke="white" stroke-opacity="0.41" stroke-width="9.9141"/>
<line x1="299.102" y1="80" x2="299.102" y2="674" stroke="white" stroke-opacity="0.41" stroke-width="9.9141"/>
<line x1="322.896" y1="80" x2="322.896" y2="674" stroke="white" stroke-opacity="0.41" stroke-width="9.9141"/>
<line x1="346.689" y1="80" x2="346.689" y2="674" stroke="white" stroke-opacity="0.41" stroke-width="9.9141"/>
<line x1="370.483" y1="80" x2="370.483" y2="674" stroke="white" stroke-opacity="0.41" stroke-width="9.9141"/>
<line x1="394.277" y1="80" x2="394.277" y2="674" stroke="white" stroke-opacity="0.41" stroke-width="9.9141"/>
<line x1="418.071" y1="80" x2="418.071" y2="674" stroke="white" stroke-opacity="0.41" stroke-width="9.9141"/>
<line x1="441.865" y1="80" x2="441.865" y2="674" stroke="white" stroke-opacity="0.41" stroke-width="9.9141"/>
<line x1="465.659" y1="80" x2="465.659" y2="674" stroke="white" stroke-opacity="0.41" stroke-width="9.9141"/>
<line x1="489.453" y1="80" x2="489.453" y2="674" stroke="white" stroke-opacity="0.41" stroke-width="9.9141"/>
<line x1="513.246" y1="80" x2="513.246" y2="674" stroke="white" stroke-opacity="0.41" stroke-width="9.9141"/>
<line x1="537.04" y1="80" x2="537.04" y2="674" stroke="white" stroke-opacity="0.41" stroke-width="9.9141"/>
<line x1="560.834" y1="80" x2="560.834" y2="674" stroke="white" stroke-opacity="0.41" stroke-width="9.9141"/>
<line x1="584.628" y1="80" x2="584.628" y2="674" stroke="white" stroke-opacity="0.41" stroke-width="9.9141"/>
<line x1="608.422" y1="80" x2="608.422" y2="674" stroke="white" stroke-opacity="0.41" stroke-width="9.9141"/>
<line x1="632.216" y1="80" x2="632.216" y2="674" stroke="white" stroke-opacity="0.41" stroke-width="9.9141"/>
<line x1="656.01" y1="80" x2="656.01" y2="674" stroke="white" stroke-opacity="0.41" stroke-width="9.9141"/>
</g>
<path d="M80.3047 197.838V117.42C80.3047 96.9216 96.9221 80.3042 117.421 80.3042H197.838M674.159 556.625V637.043C674.159 657.541 657.542 674.159 637.043 674.159H556.626M556.626 80.3042L637.043 80.3042C657.542 80.3042 674.159 96.9216 674.159 117.42V197.838M197.838 674.159H117.421C96.9221 674.159 80.3047 657.541 80.3047 637.043L80.3047 556.625" stroke="url(#paint1_linear_356_1163)" stroke-width="45.6049" stroke-linecap="round"/>
</g>
</g>
<path d="M553.365 226.015C553.365 242.718 550.069 259.311 543.476 275.793C536.882 292.276 527.982 307.55 516.773 321.616C505.785 335.681 493.038 347.988 478.533 358.537C464.028 369.086 448.974 376.668 433.37 381.283L426.448 369.745C435.678 365.13 444.139 359.196 451.831 351.944C459.523 344.692 466.116 336.56 471.611 327.549C477.105 318.319 481.28 308.649 484.137 298.54C487.214 288.21 488.753 277.771 488.753 267.222C488.753 255.135 486.995 243.707 483.478 232.938C479.962 222.169 474.797 212.829 467.984 204.917C461.171 196.786 452.71 190.412 442.601 185.797C432.711 181.182 421.283 178.874 408.317 178.874C392.493 178.874 377.988 181.951 364.802 188.105C351.616 194.258 339.748 202.61 329.199 213.159C318.65 223.488 309.42 235.465 301.508 249.091C293.816 262.497 287.333 276.672 282.058 291.617C277.004 306.342 273.158 321.286 270.52 336.45C267.883 351.614 266.564 365.899 266.564 379.305C266.564 392.931 267.993 406.997 270.85 421.501C273.707 436.006 277.883 450.291 283.377 464.357C288.871 478.422 295.684 491.718 303.816 504.245C311.947 516.772 321.287 527.761 331.836 537.211C342.605 546.661 354.473 554.243 367.439 559.957C380.625 565.451 394.911 568.198 410.294 568.198C420.843 568.198 431.063 566.77 440.953 563.913C451.062 561.056 460.732 557.21 469.962 552.375C479.193 547.54 487.874 541.826 496.005 535.233C504.356 528.64 512.048 521.497 519.081 513.805L529.96 524.354C520.29 537.101 508.752 549.408 495.346 561.276C482.16 572.923 467.874 583.363 452.49 592.593C437.107 601.604 420.953 608.856 404.031 614.35C387.328 619.625 370.736 622.262 354.253 622.262C338.21 622.262 323.045 619.515 308.76 614.021C294.695 608.307 281.729 600.724 269.861 591.274C257.993 581.604 247.334 570.396 237.884 557.649C228.654 544.683 220.742 530.947 214.149 516.442C207.776 501.938 202.831 486.993 199.315 471.609C196.018 456.225 194.37 441.171 194.37 426.446C194.37 405.128 197.886 383.261 204.919 360.845C212.171 338.208 222.061 316.341 234.588 295.243C247.115 273.925 261.839 253.816 278.762 234.916C295.904 216.016 314.255 199.533 333.814 185.468C353.594 171.402 374.142 160.304 395.46 152.172C416.998 143.821 438.425 139.645 459.743 139.645C472.929 139.645 485.236 141.623 496.664 145.579C508.092 149.315 517.982 154.81 526.333 162.062C534.685 169.314 541.278 178.325 546.113 189.094C550.948 199.863 553.365 212.17 553.365 226.015Z" fill="white"/>
</g>
<defs>
<filter id="filter0_d_356_1163" x="73.0056" y="80.7202" width="608.113" height="608.113" filterUnits="userSpaceOnUse" color-interpolation-filters="sRGB">
<feFlood flood-opacity="0" result="BackgroundImageFix"/>
<feColorMatrix in="SourceAlpha" type="matrix" values="0 0 0 0 0 0 0 0 0 0 0 0 0 0 0 0 0 0 127 0" result="hardAlpha"/>
<feOffset dy="7.35082"/>
<feGaussianBlur stdDeviation="3.67541"/>
<feComposite in2="hardAlpha" operator="out"/>
<feColorMatrix type="matrix" values="0 0 0 0 0 0 0 0 0 0 0 0 0 0 0 0 0 0 0.25 0"/>
<feBlend mode="normal" in2="BackgroundImageFix" result="effect1_dropShadow_356_1163"/>
<feBlend mode="normal" in="BackgroundImageFix" in2="effect1_dropShadow_356_1163" result="BackgroundImageFix"/>
<feBlend mode="normal" in="SourceGraphic" in2="BackgroundImageFix" result="shape"/>
</filter>
<linearGradient id="paint0_linear_356_1163" x1="747.33" y1="589.744" x2="15.9672" y2="154.253" gradientUnits="userSpaceOnUse">
<stop stop-color="#03565A"/>
<stop offset="0.240385" stop-color="#03565A"/>
<stop offset="0.620192" stop-color="#D05A29"/>
<stop offset="1" stop-color="#FFC966"/>
</linearGradient>
<linearGradient id="paint1_linear_356_1163" x1="664.245" y1="512.063" x2="75.8732" y2="629.685" gradientUnits="userSpaceOnUse">
<stop stop-color="#169EA5"/>
<stop offset="0.240385" stop-color="#03565A"/>
<stop offset="0.841346" stop-color="#D05A29"/>
<stop offset="1" stop-color="#FFC966"/>
</linearGradient>
<clipPath id="clip0_356_1163">
<rect width="748" height="748" fill="white"/>
</clipPath>
<clipPath id="clip1_356_1163">
<rect x="80.3564" y="80.7202" width="593.412" height="593.412" rx="36.7541" fill="white"/>
</clipPath>
<clipPath id="clip2_356_1163">
<rect width="593" height="594" fill="white" transform="translate(80 80)"/>
</clipPath>
</defs>
</svg>
