<svg width="598" height="598" viewBox="0 0 598 598" fill="none" xmlns="http://www.w3.org/2000/svg">
<rect width="598" height="598" fill="#DEDCFE"/>
<path d="M324.671 166.788C323.067 170.636 316.613 182.856 310.883 197.359C305.96 209.829 301.583 223.969 301.296 235.903C300.878 253.4 298.366 262.014 297.69 270.034C297.374 273.845 297.467 277.527 298.403 281.958C301.296 295.708 265.181 328.681 265.181 328.681C228.425 344.046 198.318 327.809 189.658 298.64C188.611 295.079 187.869 291.333 187.479 287.43C187.025 282.857 189.566 278.657 193.572 276.793C194.331 276.441 195.139 276.172 195.982 275.997C237.957 267.42 240.414 220.299 240.414 220.299C242.575 165.592 254.008 153.659 254.008 153.659C264.466 123.255 284.374 108.076 315.38 110.802C315.38 110.802 317.327 118.554 319.479 128.335C322.733 143.098 326.461 162.485 324.671 166.788Z" fill="#FEF26B"/>
<path d="M205.597 441.172C195.584 463.1 183.195 491.955 183.195 491.955C165.439 524.872 126.366 521.822 104.196 503.12C170.261 522.303 170.251 480.691 177.669 441.774C182.436 416.758 192.96 413.661 199.867 414.634C204.067 421.876 209.362 432.919 205.597 441.172Z" fill="#15C8E3"/>
<path d="M201.814 387.458C198.92 395.674 195.86 404.75 195.592 407.208C195.536 407.773 197.53 410.62 199.866 414.635C192.959 413.661 182.435 416.758 177.669 441.774C170.25 480.691 170.26 522.303 104.195 503.12C97.8811 497.807 92.9389 491.215 90.2499 483.825C89.2763 481.163 91.2699 478.335 94.1072 478.261C116.815 477.677 132.234 459.475 132.234 443.1C132.234 425.447 132.234 399.521 132.234 399.521C138.419 356.6 181.072 350.11 207.107 372.827C207.107 372.827 204.53 379.771 201.814 387.458Z" fill="#FF3CE5"/>
<path d="M209.194 389.822L206.413 416.971C206.413 416.971 203.695 415.173 199.866 414.634C192.959 413.661 182.436 416.758 177.669 441.774C170.25 480.691 170.261 522.303 104.196 503.12L94.293 491.937C94.293 491.937 136.871 508.033 149.853 464.696C162.063 423.906 164.836 378.408 201.815 387.457C204.132 388.024 206.59 388.812 209.194 389.822Z" fill="#FEF26B"/>
<path d="M165.173 507.688C186.397 484.574 184.25 447.862 182.489 433.828C184.719 426.72 187.742 421.774 191.42 419.243C190.69 428.697 190.643 439.049 191.27 450.395C191.23 459.453 189.59 468.516 186.294 477.793C183.208 484.886 181.042 489.919 180.691 490.741C176.754 497.995 171.463 503.712 165.173 507.688Z" fill="#15C8E3"/>
<path d="M132.973 505.167C130.436 505.167 127.749 505.004 124.911 504.677C137.613 502.293 157.768 494.463 162.137 468.869C168.628 430.853 184.159 408.682 184.159 408.682C184.159 408.682 186.391 395.567 184.362 390.705C186.947 389.617 189.793 389.072 192.923 389.072C194.199 389.072 195.521 389.163 196.892 389.343C195.273 394.459 193.983 399.943 193.015 405.828C192.923 406.258 192.859 406.621 192.829 406.911C192.822 406.968 192.817 407.026 192.814 407.083C192.53 408.915 192.276 410.784 192.053 412.691C191.81 412.781 191.566 412.877 191.321 412.98C183.388 416.325 177.876 425.84 174.936 441.258C174.238 444.922 173.598 448.644 172.981 452.242C169.486 472.598 166.187 491.825 152.592 500.332C147.44 503.555 140.939 505.167 132.973 505.167Z" fill="#C2B56B"/>
<path d="M116.2 491.864C138.399 484.415 150.242 448.958 151.743 421.459C153.635 386.808 179.829 378.538 179.829 378.538C178.64 371.887 174.376 366.11 171.488 362.832C172.267 362.789 173.048 362.767 173.833 362.767C184.129 362.767 194.785 366.499 203.54 373.474C201.753 376.792 200.159 380.297 198.754 383.989C196.724 383.664 194.772 383.5 192.895 383.5C188.32 383.5 184.183 384.47 180.428 386.406C165.08 394.322 159.276 417.335 153.131 441.7C151.289 449.002 149.385 456.552 147.187 463.894C143.608 475.845 137.348 484.11 128.581 488.458C124.522 490.472 120.264 491.476 116.2 491.864Z" fill="#FF68EB"/>
<path d="M214.356 286.367C207.248 286.369 200.644 284.518 195.505 280.315C201.839 282.157 207.887 283.078 213.632 283.078C222.989 283.078 231.536 280.637 239.185 275.761C249.92 268.919 258.874 257.5 266.128 241.302C268.83 264.696 238.667 286.365 214.356 286.367Z" fill="#FFFBD2"/>
<path d="M319.479 128.335L318.912 129.115C276.576 127.882 282.213 162.161 282.213 162.161C270.808 258.37 239.839 292.028 193.571 276.803V276.793C194.33 276.441 195.138 276.172 195.982 275.997C237.956 267.42 240.414 220.299 240.414 220.299C242.575 165.592 254.008 153.659 254.008 153.659C264.465 123.255 284.374 108.076 315.38 110.802C315.38 110.802 317.327 118.554 319.479 128.335Z" fill="#FF3CE5"/>
<path d="M265.179 328.681C223.945 345.918 191.075 323.386 187.478 287.43C187.478 287.43 190.306 295.032 197.519 301.56C208.238 311.259 228.646 318.593 263.881 295.088C263.881 295.088 267.2 292.76 271.567 288.95C278.188 283.146 287.2 273.919 290.557 264.212L297.688 270.034C297.373 273.845 297.466 277.527 298.402 281.958C301.294 295.709 265.179 328.681 265.179 328.681Z" fill="#15C8E3"/>
<path d="M226.952 316.754C214.602 316.756 202.845 313.21 195.827 306.602C195.1 305.173 194.437 303.7 193.84 302.184L194.078 302.143C197.816 305.898 202.842 309.513 209.425 311.647C213.386 312.93 217.567 313.571 221.963 313.571C234.732 313.571 249.305 308.157 265.481 297.37C265.785 297.156 268.436 295.283 272.026 292.241C264.511 309.096 245.093 316.752 226.952 316.754Z" fill="#C3F2FF"/>
<path d="M209.853 277.409C207.974 277.264 206.054 277.011 204.093 276.655C218.476 271.638 229.578 261.192 236.468 246.082C239.648 239.109 241.336 232.479 242.227 227.7C241.274 235.898 236.07 265.387 209.853 277.409ZM245.811 189.893C246.461 185.383 247.177 181.417 247.92 177.948C247.989 178.133 248.058 178.322 248.13 178.516C247.326 181.785 246.54 185.555 245.811 189.893ZM273.752 129.39C273.234 129.327 272.717 129.277 272.197 129.238C271.689 129.199 271.185 129.17 270.686 129.155C279.433 119.358 290.721 114.133 304.714 113.369C303.593 114.27 302.527 115.265 301.523 116.341C290.508 117.856 281.289 122.266 273.752 129.39Z" fill="#FFD6F2"/>
<path d="M221.993 308.01C218.197 308.01 214.597 307.465 211.21 306.377C201.076 303.117 195.13 295.52 192.251 290.706C202.154 295.202 211.17 297.029 219.285 297.029C254.34 297.029 272.551 262.95 272.551 262.95C269.503 254.373 268 244.74 267.295 238.617C269.605 233.152 271.734 227.174 273.686 220.678C274.75 235.281 277.985 247.105 280.345 254.096C282.234 259.696 283.518 265.276 284.187 270.782C276.481 282.771 262.467 292.688 262.342 292.777C247.138 302.914 233.622 308.01 221.993 308.01Z" fill="#C2B56B"/>
<path d="M216.317 277.488C254.3 267.346 263.882 204.701 263.882 204.701C255.674 196.333 250.611 185.117 248.131 178.516C248.241 178.076 248.349 177.643 248.458 177.221C248.674 177.572 248.895 177.921 249.125 178.27C254.507 186.496 263.298 193.824 273.488 198.641C265.461 236.083 252.969 260.379 236.196 271.07C230.123 274.939 223.535 277.075 216.317 277.488Z" fill="#FF68EB"/>
<path d="M237.727 331.801C228.736 331.801 220.36 329.622 213.061 325.272C205.819 320.956 200.018 314.654 196.037 307.006C206.541 318.881 219.004 324.58 231.13 324.58C248.814 324.58 265.781 312.464 274.916 289.71C278.057 286.863 281.562 283.366 284.737 279.458C284.738 280.19 284.73 280.922 284.71 281.649C284.29 296.676 279.88 309.01 271.157 319.053C268.638 321.603 266.171 323.985 263.892 326.085C263.797 326.163 263.701 326.242 263.607 326.319C254.701 329.976 245.957 331.801 237.727 331.801Z" fill="#15C8E3"/>
<path d="M248.13 178.516C248.057 178.322 247.988 178.133 247.919 177.948C248.007 177.546 248.093 177.151 248.179 176.764C248.27 176.915 248.363 177.069 248.457 177.221C248.347 177.642 248.239 178.076 248.13 178.516Z" fill="#C2A1C9"/>
<path d="M316.474 480.755C316.474 480.755 309.482 515.703 280.163 541.441C272.458 548.22 263.213 554.348 252.151 559.04C252.151 559.04 244.725 563.148 236.5 562.48C230.047 561.962 223.102 558.521 218.855 547.849C218.809 547.738 218.772 547.626 218.735 547.515C216.389 541.183 218.577 533.171 223.092 524.808C235.935 500.988 267.664 474.2 267.664 474.2L316.474 480.755Z" fill="white"/>
<path d="M450.736 418.566C449.604 427.607 446.99 433.374 443.633 436.888C432.672 448.451 413.879 435.878 413.879 435.878L409.52 430.593L385.061 400.95L401.694 374.282L404.838 369.248C404.838 369.248 422.65 372.975 436.159 384.056C445.46 391.676 452.72 402.785 450.736 418.566Z" fill="white"/>
<path d="M280.164 541.441C272.459 548.22 263.214 554.348 252.152 559.041C252.152 559.041 228.517 572.115 218.856 547.849C216.315 541.46 218.495 533.319 223.093 524.808L239.311 530.047C239.311 530.047 254.711 546.55 280.164 541.441Z" fill="#FBE3FF"/>
<path d="M238.329 565.341C235.801 565.341 233.146 564.98 230.514 564.04C224.164 561.77 219.372 556.669 216.27 548.878C213.64 542.266 215.113 533.722 220.643 523.486C233.588 499.478 264.556 473.182 265.869 472.073C267.043 471.083 268.797 471.232 269.789 472.404C270.78 473.578 270.632 475.334 269.458 476.326C269.144 476.589 237.98 503.054 225.54 526.129C220.826 534.851 219.447 541.812 221.438 546.822C223.917 553.049 227.593 557.075 232.358 558.791C240.986 561.895 250.711 556.655 250.809 556.603C250.89 556.559 250.98 556.515 251.064 556.48C261.046 552.246 270.219 546.484 278.325 539.353C306.55 514.574 313.676 480.549 313.745 480.207C314.047 478.702 315.51 477.727 317.019 478.029C318.526 478.331 319.501 479.795 319.2 481.302C318.907 482.766 311.682 517.471 281.997 543.533C273.476 551.027 263.841 557.089 253.356 561.55C252.29 562.117 245.889 565.341 238.329 565.341Z" fill="#5B24AD"/>
<path d="M450.737 418.566C445.869 457.277 413.88 435.877 413.88 435.877L409.521 430.593C409.559 427.18 409.845 423.554 410.402 419.725C414.583 391.018 429.373 385.204 436.16 384.055C445.461 391.676 452.721 402.785 450.737 418.566Z" fill="#FBE3FF"/>
<path d="M416.352 399.912C413.751 397.669 410.807 395.847 407.707 394.479C407.415 394.353 407.124 394.228 406.83 394.108C407.692 389.765 408.34 385.33 408.77 380.817C410.58 384.443 413.766 388.798 419.369 392.762C419.749 393.03 420.118 393.31 420.476 393.602C419.03 395.37 417.637 397.453 416.352 399.912Z" fill="#C2BED2"/>
<path d="M431.764 439.001C431.425 439.001 431.086 438.993 430.749 438.974C430.838 434.28 430.276 429.48 429.212 424.981C428.623 422.281 427.713 419.042 426.889 416.407C426.314 414.493 425.543 412.546 424.638 410.693C424.601 410.618 424.562 410.546 424.518 410.475C422.759 407.017 420.473 403.757 417.614 401.061C417.202 400.667 416.781 400.284 416.351 399.913C417.636 397.453 419.029 395.37 420.475 393.602C432.071 403.057 432.673 424.477 433.277 430.62C433.638 434.354 437.172 435.835 440.011 436.422C439.294 436.965 438.531 437.423 437.727 437.792C435.838 438.657 433.805 439.001 431.764 439.001Z" fill="#C29CB8"/>
<path d="M429.961 386.029C423.072 380.603 415.216 377.025 409.209 374.824C409.234 374.329 409.258 373.83 409.278 373.334C414.973 375.097 424.537 378.7 432.749 384.909C431.867 385.201 430.931 385.568 429.961 386.029Z" fill="white"/>
<path d="M441.421 435.184C443.253 431.77 444.654 427.225 445.405 421.237C447.388 405.455 440.129 394.348 430.828 386.726C430.541 386.49 430.253 386.257 429.961 386.029C430.931 385.569 431.867 385.201 432.749 384.909C433.304 385.329 433.854 385.761 434.397 386.206C444.987 394.886 449.556 405.656 447.975 418.219C446.984 426.105 444.786 431.786 441.421 435.184Z" fill="#FFF0F4"/>
<path d="M431.786 444.559C421.996 444.559 412.822 438.517 412.333 438.19C412.107 438.038 411.904 437.856 411.732 437.648L382.916 402.721C381.937 401.535 382.106 399.781 383.29 398.804C384.476 397.828 386.227 397.995 387.207 399.179L415.745 433.769C417.789 435.037 429.214 441.69 437.727 437.792C443.21 435.282 446.658 428.695 447.975 418.219C449.556 405.656 444.987 394.886 434.397 386.206C421.598 375.709 404.439 372.007 404.267 371.97C402.764 371.653 401.801 370.178 402.116 368.675C402.431 367.173 403.904 366.211 405.409 366.525C406.163 366.683 424.047 370.522 437.924 381.905C450.091 391.875 455.33 404.328 453.496 418.914C451.921 431.443 447.387 439.499 440.022 442.859C437.349 444.078 434.542 444.559 431.786 444.559Z" fill="#5B24AD"/>
<path d="M504.097 256.107C501.548 270.851 494.973 284.249 485.507 295.162C475.289 306.947 461.696 315.83 446.174 320.345C435.158 323.553 422.15 325.491 407.445 324.499C405.173 324.351 402.863 324.128 400.509 323.832C402.14 329.766 403.439 335.617 404.403 341.365C412.257 387.829 398.857 427.783 371.717 453.263C352.182 471.621 325.533 482.479 294.564 482.879C290.679 482.934 286.737 482.823 282.723 482.535L282.704 482.526C282.667 482.535 282.64 482.526 282.603 482.526C282.584 482.526 282.574 482.526 282.556 482.516C278.56 482.238 274.508 481.784 270.391 481.153C259.635 502.674 248.036 521.451 234.804 534.896C225.309 544.548 214.961 551.455 203.491 554.682C195.934 556.806 187.988 556.193 181.108 553.162C176.194 550.991 171.809 547.589 168.498 543.064C163.019 535.573 161.034 526.068 167.469 516.852C172.745 509.759 177.52 502.545 181.526 495.155V495.145C189.176 481.023 193.996 466.244 194.052 450.324C191.466 403.758 199.357 363.796 238.245 343.359C266.496 332.724 286.552 315.227 287.49 281.727C287.657 275.838 287.1 269.968 285.941 264.212C285.941 264.183 285.931 264.174 285.931 264.174C285.189 260.465 284.197 256.803 282.983 253.206C279.636 243.292 274.768 224.359 276.465 201.67C276.566 200.167 276.706 198.648 276.882 197.118C256.723 188.514 238.837 168.541 248.045 145.694C248.861 143.681 249.88 141.735 251.234 140.038C251.558 139.638 251.892 139.249 252.236 138.879C264.438 125.721 289.065 133.185 295.89 145.017L322.316 117.682C316.178 83.0882 362.371 74.1029 368.315 116.523L405.033 134.067C405.033 134.067 450.578 175.477 479.322 195.569C485.932 200.186 491.431 205.573 495.631 211.711C503.847 223.701 507.13 238.565 504.097 256.107Z" fill="white"/>
<path d="M234.804 534.896C225.309 544.548 214.961 551.455 203.491 554.682C190.53 558.327 176.444 553.913 168.498 543.064C163.019 535.573 161.034 526.068 167.469 516.852C172.745 509.759 177.52 502.545 181.526 495.155C181.85 495.961 198.336 536.684 234.804 534.896Z" fill="#FBE3FF"/>
<path d="M504.098 256.107C498.795 286.78 476.059 311.648 446.175 320.345C435.159 323.553 422.15 325.491 407.445 324.5C407.167 324.083 407 323.832 407 323.832C364.968 281.958 443.783 194.949 495.632 211.712C503.848 223.701 507.131 238.565 504.098 256.107Z" fill="#FBE3FF"/>
<path d="M491.352 210.573C489.403 210.161 487.428 209.883 485.424 209.733C481.769 205.345 477.389 201.393 472.367 197.887C453.472 184.679 427.316 162.257 411.61 148.445C412.14 147.299 412.623 146.14 413.059 144.972C428.146 158.32 457.288 183.561 477.729 197.85C483.12 201.614 487.69 205.884 491.352 210.573ZM355.496 101.843C351.621 95.8179 346.417 92.3111 341.028 91.0073C341.706 90.9314 342.391 90.8926 343.078 90.8926C345.308 90.8926 347.558 91.3025 349.707 92.1425C352.626 93.2827 355.234 95.1331 357.462 97.594L355.496 101.843Z" fill="white"/>
<path d="M478.404 297.653C487.945 286.713 494.579 273.246 497.142 258.426C500.175 240.882 496.893 226.019 488.678 214.031C487.668 212.553 486.583 211.121 485.425 209.733C487.428 209.883 489.404 210.162 491.352 210.573C492.047 211.462 492.708 212.366 493.337 213.284C501.466 225.145 504.163 239.395 501.356 255.635C498.608 271.524 490.874 285.968 479.75 297.198C479.298 297.353 478.855 297.503 478.404 297.653Z" fill="#FFF0F4"/>
<path d="M194.444 558.714C197.703 558.714 201 558.274 204.245 557.361C215.749 554.124 226.392 547.414 236.785 536.846C248.623 524.818 260.144 507.585 271.975 484.198C278.959 485.176 285.838 485.659 292.58 485.659C327.61 485.657 358.806 472.617 380.337 448.409C407.428 417.948 416.049 373.898 404.231 327.037C405.252 327.131 406.262 327.21 407.257 327.274C420.761 328.185 434.118 326.753 446.951 323.017C477.91 314.007 501.418 287.929 506.838 256.581C509.901 238.863 506.902 223.239 497.927 210.141C493.605 203.824 487.881 198.153 480.916 193.289C452.648 173.529 407.358 132.421 406.904 132.008C406.704 131.825 406.476 131.674 406.231 131.557L370.84 114.647C368.542 100.874 361.631 90.8258 351.731 86.9597C343.76 83.8477 334.728 85.2563 328.167 90.6404C321.005 96.517 317.831 105.973 319.351 116.748L296.217 140.676C291.03 134.504 281.7 129.962 272.197 129.238C262.559 128.506 254.335 131.719 249.061 138.302C247.666 140.052 246.489 142.126 245.464 144.653C240.893 156 242.158 167.625 249.124 178.27C254.581 186.608 263.539 194.024 273.906 198.837C271.57 223.313 276.895 243.871 280.346 254.096C283.491 263.421 284.96 272.691 284.71 281.649C283.916 310.088 268.839 328.868 237.265 340.757C237.157 340.797 237.052 340.844 236.949 340.896C217.973 350.87 205.223 365.66 197.974 386.113C192.004 402.957 189.81 423.984 191.271 450.395C191.206 464.589 187.219 478.795 179.08 493.821C179.056 493.865 179.033 493.91 179.011 493.956C175.325 500.742 170.819 507.689 165.188 515.26C158.834 524.361 159.222 535.094 166.254 544.709C172.8 553.647 183.396 558.713 194.444 558.714ZM202.738 552.006C190.712 555.384 177.854 551.131 170.744 541.423C167.489 536.971 163.031 528.069 169.7 518.511C175.476 510.747 180.144 503.542 183.972 496.481C183.995 496.436 184.019 496.39 184.041 496.343C192.598 480.507 196.782 465.456 196.833 450.335C196.835 450.279 196.833 450.225 196.83 450.17C193.777 395.217 206.903 363.049 239.387 345.901C273.238 333.112 289.405 312.741 290.271 281.804C290.537 272.188 288.974 262.267 285.617 252.317C282.218 242.247 276.923 221.726 279.646 197.428C279.782 196.207 279.103 195.042 277.973 194.559C258.815 186.382 242.084 167.927 250.622 146.74C251.442 144.721 252.353 143.096 253.405 141.777C258.919 134.896 267.28 134.444 271.773 134.786C280.865 135.477 289.994 140.365 293.48 146.407C293.916 147.163 294.682 147.671 295.549 147.777C296.419 147.887 297.283 147.578 297.889 146.951L324.314 119.615C324.935 118.974 325.211 118.075 325.054 117.196C323.401 107.874 325.821 99.7602 331.695 94.9412C336.703 90.8322 343.604 89.7599 349.707 92.1433C358.033 95.3938 363.81 104.421 365.561 116.91C365.689 117.834 366.275 118.632 367.116 119.033L403.467 136.402C407.507 140.059 450.398 178.745 477.729 197.85C484.142 202.329 489.393 207.522 493.337 213.284C501.465 225.145 504.163 239.395 501.356 255.635C496.295 284.9 474.328 309.255 445.396 317.676C433.193 321.23 420.483 322.591 407.625 321.725C405.431 321.58 403.153 321.36 400.855 321.072C399.931 320.958 399.014 321.308 398.405 322.011C397.796 322.715 397.578 323.675 397.826 324.572C410.642 371.044 402.752 414.834 376.179 444.713C351.385 472.59 312.978 484.868 270.812 478.406C269.62 478.217 268.442 478.83 267.902 479.91C256.021 503.685 244.545 521.033 232.82 532.945C223.123 542.804 213.284 549.039 202.738 552.006Z" fill="#5B24AD"/>
<path d="M194.444 558.714C197.703 558.714 201 558.274 204.245 557.361C215.749 554.124 226.392 547.414 236.785 536.846C248.623 524.818 260.144 507.585 271.975 484.198C278.959 485.176 285.838 485.659 292.58 485.659C327.61 485.657 358.806 472.617 380.337 448.409C407.428 417.948 416.049 373.898 404.231 327.037C405.252 327.131 406.262 327.21 407.257 327.274C420.761 328.185 434.118 326.753 446.951 323.017C477.91 314.007 501.418 287.929 506.838 256.581C509.901 238.863 506.902 223.239 497.927 210.141C493.605 203.824 487.881 198.153 480.916 193.289C452.648 173.529 407.358 132.421 406.904 132.008C406.704 131.825 406.476 131.674 406.231 131.557L370.84 114.647C368.542 100.874 361.631 90.8258 351.731 86.9597C343.76 83.8477 334.728 85.2563 328.167 90.6404C321.005 96.517 317.831 105.973 319.351 116.748L296.217 140.676C291.03 134.504 281.7 129.962 272.197 129.238C262.559 128.506 254.335 131.719 249.061 138.302C247.666 140.052 246.489 142.126 245.464 144.653C240.893 156 242.158 167.625 249.124 178.27C254.581 186.608 263.539 194.024 273.906 198.837C271.57 223.313 276.895 243.871 280.346 254.096C283.491 263.421 284.96 272.691 284.71 281.649C283.916 310.088 268.839 328.868 237.265 340.757C237.157 340.797 237.052 340.844 236.949 340.896C217.973 350.87 205.223 365.66 197.974 386.113C192.004 402.957 189.81 423.984 191.271 450.395C191.206 464.589 187.219 478.795 179.08 493.821C179.056 493.865 179.033 493.91 179.011 493.956C175.325 500.742 170.819 507.689 165.188 515.26C158.834 524.361 159.222 535.094 166.254 544.709C172.8 553.647 183.396 558.713 194.444 558.714ZM202.738 552.006C190.712 555.384 177.854 551.131 170.744 541.423C167.489 536.971 163.031 528.069 169.7 518.511C175.476 510.747 180.144 503.542 183.972 496.481C183.995 496.436 184.019 496.39 184.041 496.343C192.598 480.507 196.782 465.456 196.833 450.335C196.835 450.279 196.833 450.225 196.83 450.17C193.777 395.217 206.903 363.049 239.387 345.901C273.238 333.112 289.405 312.741 290.271 281.804C290.537 272.188 288.974 262.267 285.617 252.317C282.218 242.247 276.923 221.726 279.646 197.428C279.782 196.207 279.103 195.042 277.973 194.559C258.815 186.382 242.084 167.927 250.622 146.74C251.442 144.721 252.353 143.096 253.405 141.777C258.919 134.896 267.28 134.444 271.773 134.786C280.865 135.477 289.994 140.365 293.48 146.407C293.916 147.163 294.682 147.671 295.549 147.777C296.419 147.887 297.283 147.578 297.889 146.951L324.314 119.615C324.935 118.974 325.211 118.075 325.054 117.196C323.401 107.874 325.821 99.7602 331.695 94.9412C336.703 90.8322 343.604 89.7599 349.707 92.1433C358.033 95.3938 363.81 104.421 365.561 116.91C365.689 117.834 366.275 118.632 367.116 119.033L403.467 136.402C407.507 140.059 450.398 178.745 477.729 197.85C484.142 202.329 489.393 207.522 493.337 213.284C501.465 225.145 504.163 239.395 501.356 255.635C496.295 284.9 474.328 309.255 445.396 317.676C433.193 321.23 420.483 322.591 407.625 321.725C405.431 321.58 403.153 321.36 400.855 321.072C399.931 320.958 399.014 321.308 398.405 322.011C397.796 322.715 397.578 323.675 397.826 324.572C410.642 371.044 402.752 414.834 376.179 444.713C351.385 472.59 312.978 484.868 270.812 478.406C269.62 478.217 268.442 478.83 267.902 479.91C256.021 503.685 244.545 521.033 232.82 532.945C223.123 542.804 213.284 549.039 202.738 552.006Z" stroke="black"/>
<path d="M411.775 139.889L411.765 139.908C404.736 165.842 375.205 184.441 339.312 184.441C308.492 182.625 295.529 165.062 294.092 147.502C293.915 145.388 293.907 143.273 294.063 141.186V141.168C294.111 140.427 294.185 139.685 294.278 138.953V138.933C295.797 126.927 302.474 116.18 312.117 112.129C322.944 106.947 336.32 108.701 350.608 110.455C368.952 112.709 388.8 114.961 406.693 102.54C410.783 110.358 412.897 118.016 413.286 125.312C413.565 130.366 413.035 135.244 411.775 139.889Z" fill="#FEF26B"/>
<path d="M388.814 141.396C384.793 141.396 380.515 140.984 376.061 140.345L375.826 136.754C380.362 137.361 384.749 137.758 388.912 137.758C397.184 137.756 404.558 136.19 410.384 131.608C410.31 132.498 410.209 133.384 410.079 134.266C404.577 139.583 397.255 141.396 388.814 141.396ZM301.088 136.941C309.265 132.034 318.483 130.363 328.172 130.363C332.655 130.363 337.24 130.72 341.87 131.28L340.544 134.146C335.702 133.514 330.866 133.109 326.116 133.109C319.086 133.109 312.239 133.996 305.813 136.356C303.601 136.53 302.024 136.769 301.088 136.941Z" fill="#FFFBD2"/>
<path d="M413.08 125.832C412.698 126.328 412.306 126.804 411.897 127.262C400.293 140.32 379.377 136.387 356.641 132.453C332.714 128.313 306.772 124.171 287.543 139.841V139.82C287.621 139.22 287.708 138.611 287.815 138.022C289.84 126.423 296.687 116.254 306.361 112.294C317.782 106.973 331.892 108.774 346.964 110.575C366.314 112.89 387.25 115.202 406.125 102.446C408.307 106.514 409.96 110.532 411.104 114.483C411.241 114.93 411.358 115.377 411.486 115.826C412.376 119.224 412.904 122.567 413.08 125.832Z" fill="#FF3CE5"/>
<path d="M301.269 126.018C304.146 120.843 308.253 116.771 313.194 114.694C313.234 114.677 313.277 114.659 313.317 114.64C318.251 112.279 323.895 111.481 329.991 111.481C336.144 111.481 342.756 112.294 349.557 113.129C349.781 113.158 350.007 113.185 350.233 113.213L348.331 117.326C341.417 116.476 334.722 115.654 328.437 115.654C321.997 115.654 315.987 116.516 310.605 119.092C307.052 120.581 303.905 122.981 301.269 126.018ZM374.678 119.115L374.408 114.974C384.877 114.772 395.494 112.755 405.584 106.581C407.262 110.211 408.512 113.854 409.339 117.483C409.192 117.663 409.044 117.842 408.89 118.017C407.912 115.207 406.679 112.367 405.181 109.504C395.41 116.287 385.053 118.694 374.678 119.115Z" fill="#FFD6F2"/>
<path d="M411.764 139.908C410.364 145.063 408.084 149.931 405.032 154.409C392.748 172.499 368.074 184.441 339.311 184.441C308.491 182.625 295.528 165.062 294.091 147.502C294.091 146.592 294.081 145.757 294.081 145.017C294.073 142.764 294.062 141.364 294.062 141.186V141.168C294.062 141.168 309.955 135.605 336.845 147.658C363.734 159.712 374.861 157.553 374.861 157.553C374.861 157.553 400.925 161.475 411.764 139.908Z" fill="#15C8E3"/>
<path d="M378.846 164.266C375.365 164.266 373.099 163.877 373.099 163.877C373.099 163.877 372.482 163.983 371.192 163.983C366.993 163.983 355.668 162.85 335.298 153.205C320.736 146.313 309.347 144.749 302.02 144.749C299.916 144.749 298.15 144.877 296.735 145.046C296.718 144.327 296.72 143.61 296.742 142.897C298.358 142.585 300.969 142.231 304.481 142.231C311.508 142.231 322.143 143.649 335.64 149.659C344.919 156.668 355.932 160.001 369.986 160.001C370.401 160.001 370.817 159.997 371.235 159.992C371.689 160.009 372.104 160.016 372.48 160.016C373.644 160.016 374.439 159.947 374.884 159.891C375.57 159.969 377.164 160.115 379.364 160.115C384.741 160.115 393.716 159.231 401.742 154.271C400.141 156.47 398.353 158.558 396.398 160.529C390.026 163.6 383.397 164.266 378.846 164.266Z" fill="#C3F2FF"/>
<path d="M379.363 160.116C377.164 160.116 375.57 159.969 374.883 159.891C372.545 160.181 360.645 160.873 335.896 149.774C310.331 138.309 294.968 143.307 294.816 143.359C293.61 143.773 292.29 143.13 291.873 141.922C291.455 140.716 292.087 139.402 293.293 138.981C293.978 138.741 310.378 133.251 337.793 145.544C363.385 157.02 374.328 155.291 374.436 155.273C374.682 155.231 374.956 155.224 375.202 155.259C376.199 155.406 399.773 158.635 409.704 138.846C410.278 137.7 411.67 137.238 412.817 137.813C413.96 138.389 414.422 139.782 413.849 140.925C405.324 157.909 387.856 160.116 379.363 160.116Z" fill="#5B24AD"/>
<path d="M339.398 181.66C306.492 179.683 299.042 160.002 297.36 151.036C305.497 161.576 326.895 175.274 352.726 175.278C365.854 175.279 380.124 171.742 394.389 162.457C381.195 174.527 361.369 181.642 339.398 181.66Z" fill="#15C8E3"/>
<path d="M379.857 155.541C378.749 155.541 377.796 155.497 377.044 155.445L376.543 147.755C378.201 147.876 379.797 147.934 381.337 147.934C395.683 147.934 404.926 142.857 409.828 135.799C409.509 137.537 409.082 139.254 408.549 140.947C400.871 153.728 387.073 155.541 379.857 155.541Z" fill="#C2B56B"/>
<path d="M408.55 140.947C409.083 139.254 409.51 137.537 409.828 135.799C411.441 133.477 412.585 130.94 413.285 128.298C413.285 128.298 413.841 132.556 412.566 137.705C412.308 137.611 412.041 137.567 411.778 137.567C410.928 137.567 410.112 138.034 409.705 138.845C409.339 139.576 408.953 140.278 408.55 140.947Z" fill="#5B24AD"/>
<path d="M377.155 157.126L377.045 155.445C377.797 155.497 378.75 155.541 379.858 155.541C387.074 155.541 400.872 153.728 408.55 140.947C408.953 140.278 409.339 139.576 409.705 138.845C410.112 138.034 410.928 137.567 411.778 137.567C412.042 137.567 412.308 137.611 412.566 137.705C411.168 143.352 407.568 150.074 398.617 153.439C392.209 155.848 384.406 156.835 377.155 157.126Z" fill="#5B24AD"/>
<path d="M335.693 144.628C322.366 138.97 311.783 137.553 304.52 137.553C303.929 137.553 303.361 137.562 302.814 137.58C303.805 137.133 304.803 136.727 305.814 136.356C307.483 136.224 309.514 136.13 311.904 136.13C318.198 136.13 326.984 136.784 338.235 139.137L335.693 144.628Z" fill="#C2B56B"/>
<path d="M299.763 137.769C300.201 137.482 300.641 137.207 301.087 136.941C302.023 136.769 303.6 136.529 305.811 136.356C304.801 136.727 303.802 137.133 302.812 137.58C301.704 137.614 300.685 137.681 299.763 137.769Z" fill="#C2BBB3"/>
<path d="M299.684 137.778L300.063 137.153C300.063 137.153 300.406 137.066 301.089 136.941C300.643 137.207 300.203 137.482 299.765 137.769C299.738 137.772 299.711 137.774 299.684 137.778Z" fill="#5B24AD"/>
<path d="M334.588 148.209C323.105 144.004 309.334 139.701 301.064 139.701C300.094 139.701 299.204 139.76 298.397 139.884L299.683 137.778C299.71 137.774 299.737 137.773 299.764 137.769C300.686 137.682 301.705 137.614 302.813 137.58C303.36 137.562 303.928 137.553 304.519 137.553C311.782 137.553 322.365 138.97 335.692 144.628L334.739 146.689C334.511 147.178 334.469 147.713 334.588 148.209Z" fill="#5B24AD"/>
<path d="M298.27 133.235C298.315 133.082 298.361 132.927 298.408 132.773C301.953 128.039 310.472 119.814 326.865 119.814C329.913 119.814 333.233 120.097 336.846 120.742C339.863 121.281 342.923 121.831 345.996 122.368L343.908 126.88C338.704 126.215 333.472 125.775 328.309 125.775C317.713 125.775 307.408 127.634 298.27 133.235Z" fill="#FF68EB"/>
<path d="M294.276 138.953V138.933C294.286 138.85 294.297 138.764 294.308 138.68C294.438 138.646 294.58 138.611 294.733 138.574C294.58 138.699 294.428 138.825 294.276 138.953Z" fill="#5B24AD"/>
<path d="M388.949 133.151C384.769 133.151 380.265 132.711 375.519 132.041L375.143 126.262C377.543 126.414 379.886 126.497 382.158 126.497C393.72 126.497 403.379 124.338 408.889 118.017C409.382 119.427 409.809 120.829 410.175 122.221C410.298 123.197 410.389 124.172 410.45 125.142C405.268 131.159 397.841 133.151 388.949 133.151Z" fill="#FF68EB"/>
<path d="M410.176 122.221C409.81 120.829 409.383 119.427 408.891 118.017C409.044 117.842 409.193 117.663 409.339 117.482C409.699 119.066 409.979 120.647 410.176 122.221Z" fill="#C2A1C9"/>
<path d="M392.01 156.164C384.357 156.563 376.816 156.484 369.419 155.683C354.211 154.017 339.689 149.247 326.371 139.08L371.804 40.9266C373.086 38.1395 375.649 36.9221 378.13 37.0182C381.316 37.1318 384.389 39.4034 384.662 43.3264L392.01 156.164Z" fill="#F7DB0F"/>
<path d="M383.299 152.393C382.586 152.393 381.881 152.387 381.179 152.378L380.157 117.983C381.948 117.22 383.681 116.317 385.332 115.306L387.744 152.329C386.238 152.372 384.756 152.393 383.299 152.393ZM380.107 116.369L379.062 81.1558C380.437 80.3112 381.727 79.3035 382.909 78.1182L385.283 114.561C383.591 115.286 381.861 115.895 380.107 116.369ZM378.986 78.6336L377.92 42.8462C377.9 42.1968 377.798 41.5853 377.632 41.0232C377.716 41.0144 377.795 41.0114 377.871 41.0114C378.11 41.0114 378.305 41.0405 378.427 41.0609C378.916 41.1541 380.533 41.6055 380.661 43.5801L382.81 76.5862C381.584 77.4337 380.305 78.1123 378.986 78.6336Z" fill="#FDF4B7"/>
<path d="M331.372 137.795C346.522 148.445 364.153 152.998 387.744 152.328L380.661 43.5793C380.533 41.6047 378.916 41.1533 378.427 41.0601C377.935 40.9698 376.266 40.8096 375.433 42.6066L331.372 137.795ZM383.591 160.389C359.147 160.389 340.03 154.55 323.936 142.268C322.445 141.13 321.944 139.105 322.733 137.405L368.17 39.2428C370.269 34.7082 374.982 32.2763 379.892 33.1908C384.805 34.1082 388.323 38.072 388.649 43.058L395.997 155.901C396.067 156.97 395.706 158.021 394.996 158.822C394.282 159.623 393.28 160.104 392.211 160.159C389.264 160.311 386.392 160.389 383.591 160.389Z" fill="#5B24AD"/>
<path d="M386.599 73.2019C379.705 85.5388 365.044 86.7386 352.617 82.3963L355.961 75.1241C365.761 81.3245 378.255 82.6206 386.599 73.2019Z" fill="#5B24AD"/>
<path d="M344.919 103.092C352.266 112.784 364.612 119.337 377.001 117.068C381.198 116.322 385.325 114.782 389.172 112.664C383.93 116.701 377.543 119.747 370.813 120.475C358.971 121.774 347.184 116.398 338.765 108.211L344.919 103.092Z" fill="#5B24AD"/>
<path d="M365.403 151.134C352.335 149.151 341.318 144.785 331.372 137.795L343.275 112.079C348.153 115.76 353.78 118.521 359.698 119.829C359.185 132.5 360.609 143.786 365.403 151.134Z" fill="#BDA52B"/>
<path d="M359.983 114.971C354.84 112.772 350.192 109.289 346.522 105.066L356.483 83.5463C359.177 84.2103 361.923 84.6034 364.629 84.6733C362.485 94.6337 360.726 105.11 359.983 114.971ZM365.823 79.3437C363.668 78.8398 361.536 78.0681 359.48 77.0779L375.434 42.6069C375.754 41.9138 376.2 41.5119 376.654 41.2847C374.33 48.19 369.679 62.7314 365.823 79.3437Z" fill="#BDA52B"/>
<path d="M364.628 84.673C361.922 84.6031 359.176 84.2099 356.482 83.5459C355.177 83.2255 353.887 82.8382 352.617 82.3955L353.768 79.8909L355.972 75.1291C357.108 75.8485 358.279 76.5009 359.479 77.0776C361.535 78.0678 363.667 78.8395 365.822 79.3433C365.414 81.0995 365.015 82.876 364.628 84.673Z" fill="#5B24AD"/>
<path d="M359.698 119.829C353.78 118.521 348.153 115.76 343.275 112.079C342.174 111.249 341.108 110.369 340.086 109.449L341.845 105.649L344.918 103.091C345.43 103.767 345.963 104.425 346.522 105.066C350.192 109.289 354.84 112.772 359.983 114.971C359.861 116.608 359.765 118.23 359.698 119.829Z" fill="#5B24AD"/>
<path d="M441.432 240.73C441.432 242.011 439.694 243.048 437.549 243.048C435.405 243.048 433.666 242.011 433.666 240.73C433.666 239.45 435.405 238.413 437.549 238.413C439.694 238.413 441.432 239.45 441.432 240.73Z" fill="#5B24AD" fill-opacity="0.58"/>
<path d="M456.15 228.096C456.15 230.272 455.035 232.037 453.659 232.037C452.283 232.037 451.166 230.272 451.166 228.096C451.166 225.921 452.283 224.156 453.659 224.156C455.035 224.156 456.15 225.921 456.15 228.096Z" fill="#5B24AD" fill-opacity="0.58"/>
<path d="M433.666 268.972C445.558 271.918 459.686 268.695 466.141 257.751C468.315 254.115 469.31 249.96 470.061 245.715C470.656 247.879 470.916 250.151 470.85 252.458C470.537 265.163 458.643 273.944 446.499 273.369C441.859 273.21 437.171 271.836 433.666 268.972Z" fill="#5B24AD" fill-opacity="0.58"/>
<path d="M424.18 454.793H424.17C422.261 458.141 419.813 460.467 417.356 461.914C410.049 466.207 393.859 466.921 383.651 453.727L383.643 453.698L383.632 453.69C382.826 452.661 382.065 451.539 381.352 450.325H381.092C355.464 450.25 331.874 443.119 320.693 393.299C320.553 382.043 324.633 374.004 331.087 369.247V369.237C343.493 360.058 364.67 362.979 381.352 378.233L385.061 393.689C385.061 393.689 411.523 390.305 422.131 411.919H422.139C422.863 413.393 423.512 414.987 424.077 416.713C430.133 435.201 428.409 447.44 424.18 454.793Z" fill="white"/>
<path d="M417.355 461.914C410.048 466.207 393.859 466.921 383.651 453.727C383.642 453.708 383.642 453.698 383.642 453.698L383.632 453.69C383.141 453.459 382.15 452.03 381.092 450.325C379.302 447.44 377.327 443.768 377.327 443.768C381.352 418.733 411.31 406.68 422.131 411.919H422.139C422.863 413.393 423.512 414.987 424.077 416.713C432.887 443.601 425.238 457.277 417.355 461.914Z" fill="#FBE3FF"/>
<path d="M363.206 366.906C361.531 366.275 359.856 365.749 358.192 365.326C359.855 365.749 361.531 366.277 363.206 366.906ZM358.168 365.321C358.155 365.317 358.141 365.314 358.128 365.31C358.141 365.312 358.155 365.317 358.168 365.321ZM358.069 365.295C358.067 365.294 358.063 365.294 358.063 365.294C358.065 365.294 358.067 365.294 358.069 365.295Z" fill="white"/>
<path d="M418.392 410.865C417.607 410.763 416.779 410.713 415.914 410.713C415.43 410.713 414.936 410.728 414.428 410.76C408.919 401.982 400.536 398.126 393.311 396.488C397.501 396.886 401.652 397.873 405.444 399.563C410.864 401.91 415.361 405.863 418.392 410.865ZM379.035 395.544L375.326 380.086C364.949 370.604 352.843 365.889 342.186 365.889C340.015 365.889 337.905 366.085 335.881 366.474C339.583 364.845 343.768 364.029 348.204 364.029C351.389 364.029 354.703 364.45 358.063 365.294C358.063 365.294 358.067 365.294 358.068 365.295C358.089 365.3 358.107 365.305 358.127 365.31C358.141 365.314 358.154 365.317 358.168 365.321C358.176 365.322 358.183 365.324 358.192 365.326C359.856 365.749 361.531 366.275 363.206 366.906C363.213 366.91 363.216 366.911 363.223 366.913C363.232 366.916 363.24 366.92 363.248 366.923C369.454 369.264 375.663 373.031 381.352 378.233L382.356 394.338C382.408 394.748 382.513 395.082 382.663 395.352C380.411 395.367 379.035 395.544 379.035 395.544Z" fill="white"/>
<path d="M416.652 458.929C421.903 451.951 424.785 439.118 418.052 418.566C417.487 416.841 416.837 415.247 416.114 413.773H416.105C415.584 412.71 415.022 411.706 414.429 410.76C414.936 410.728 415.431 410.713 415.915 410.713C416.78 410.713 417.608 410.764 418.393 410.865C418.84 411.602 419.255 412.363 419.636 413.144C419.673 413.223 419.715 413.299 419.761 413.373C420.881 415.608 421.673 418.366 422.394 420.781C425.804 432.649 427.963 449.255 417.704 458.257C417.46 458.456 417.21 458.645 416.955 458.826C416.853 458.861 416.753 458.895 416.652 458.929Z" fill="#FFF0F4"/>
<path d="M320.694 393.299C326.977 410.649 334.215 429.031 349.74 439.976C359.014 446.189 370.221 447.516 381.35 447.542C383.851 447.57 384.362 450.493 385.823 451.974L385.601 451.723L385.611 451.731C385.997 452.097 386.24 453.228 386.425 453.7L386.434 453.727L385.852 452.025C390.084 457.581 396.482 461.177 403.435 461.779C408.436 462.198 413.793 461.445 417.704 458.258C427.963 449.255 425.804 432.649 422.394 420.781C421.648 418.283 420.827 415.417 419.644 413.144L422.141 414.7C421.043 414.704 420.088 414.07 419.636 413.144C416.667 407.065 411.663 402.256 405.445 399.564C400.014 397.143 393.845 396.163 387.883 396.295C387.468 396.295 387.016 396.33 386.554 396.367C384.68 396.514 382.649 396.662 382.357 394.338L381.353 378.233L387.766 393.039L384.71 390.931C392.557 390.226 400.449 391.31 407.707 394.48C411.32 396.074 414.724 398.287 417.615 401.061C420.535 403.813 422.856 407.156 424.63 410.693C424.632 410.693 424.004 410.305 423.379 409.915C422.748 409.522 422.122 409.131 422.141 409.136C423.237 409.134 424.187 409.772 424.639 410.693C425.545 412.547 426.315 414.493 426.891 416.408C427.714 419.042 428.625 422.281 429.213 424.981C433.602 443.554 429.465 467.28 406.068 467.467C396.551 467.594 387.171 463.029 381.453 455.429C381.436 455.407 381.424 455.383 381.414 455.36L380.871 453.727L380.862 453.7L381.675 455.665C380.631 454.449 379.766 453.084 378.955 451.733L381.353 453.106C341.656 453.632 324.92 430.522 320.694 393.299Z" fill="#5B24AD"/>
<path d="M385.754 396.379C379.557 397.246 373.314 400.118 369.604 405.354C370.185 403.795 370.911 402.225 371.913 400.813C375.028 396.385 379.582 393.007 384.577 390.909C388.718 389.573 390.082 395.891 385.754 396.379Z" fill="#5B24AD"/>
<path d="M378.943 451.719C376.912 446.474 374.534 441.017 372.233 435.874C376.104 440.084 380.102 444.519 383.764 448.938C386.313 452.458 380.718 455.69 378.943 451.719Z" fill="#5B24AD"/>
<path d="M377.244 447.467C367.493 447.114 357.873 445.424 349.74 439.976C334.215 429.031 326.977 410.649 320.694 393.299C320.694 393.302 320.694 393.299 320.694 393.3C320.694 393.297 320.694 393.302 320.694 393.299C320.692 393.123 320.69 392.948 320.69 392.774C320.682 381.792 324.735 373.93 331.088 369.247C331.013 369.942 327.601 405.307 361.565 424.288C361.565 424.288 365.998 415.645 372.627 415.645C375.402 415.645 378.563 417.159 381.947 421.459C383.107 422.937 384.219 424.642 385.303 426.497C381.731 430.812 378.974 435.963 377.684 441.887C375.871 439.85 374.037 437.837 372.232 435.874C373.916 439.639 375.643 443.571 377.244 447.467Z" fill="#F9F9F9"/>
<path d="M405.919 461.885C405.086 461.885 404.256 461.848 403.435 461.779C396.482 461.177 390.084 457.581 385.852 452.025L385.926 452.239C385.865 452.102 385.801 451.979 385.732 451.878C385.762 451.91 385.793 451.942 385.823 451.974L385.705 451.841C385.675 451.798 385.643 451.763 385.611 451.731L385.601 451.723L385.705 451.841C385.714 451.852 385.724 451.864 385.732 451.878C384.811 450.883 384.263 449.321 383.291 448.369C381.48 446.2 379.592 444.029 377.685 441.887C378.975 435.963 381.731 430.812 385.304 426.497C392.881 439.462 399.137 459.701 412.113 459.701C413.54 459.701 415.051 459.455 416.652 458.928C416.598 458.999 416.544 459.07 416.49 459.141C413.413 461.138 409.65 461.885 405.919 461.885Z" fill="#C29CB8"/>
<path d="M416.488 459.141C416.542 459.07 416.596 459 416.65 458.929C416.751 458.895 416.85 458.861 416.953 458.826C416.8 458.934 416.645 459.04 416.488 459.141Z" fill="#C2B3CB"/>
<path d="M386.433 453.727L386.425 453.7C386.39 453.612 386.354 453.504 386.315 453.381L386.433 453.727Z" fill="#C29CB8"/>
<path d="M405.801 464.692C398.46 464.692 389.927 461.836 383.652 453.727L383.644 453.698L383.634 453.689C383.467 453.475 383.302 453.258 383.138 453.037C384.337 452.242 384.985 450.623 383.764 448.938C383.607 448.749 383.45 448.558 383.291 448.369C384.263 449.321 384.811 450.883 385.732 451.878C385.801 451.979 385.865 452.102 385.926 452.239L385.852 452.025C390.084 457.581 396.482 461.177 403.435 461.779C404.256 461.848 405.086 461.885 405.919 461.885C409.65 461.885 413.413 461.138 416.49 459.141C416.647 459.04 416.802 458.934 416.956 458.826C419.175 458.051 421.572 456.739 424.171 454.793C422.262 458.141 419.815 460.467 417.357 461.914C414.542 463.569 410.406 464.69 405.801 464.692ZM386.316 453.381C386.355 453.504 386.39 453.612 386.425 453.7L386.434 453.727L386.316 453.381ZM385.823 451.974C385.793 451.942 385.762 451.91 385.732 451.878C385.724 451.864 385.714 451.853 385.705 451.841L385.823 451.974ZM385.705 451.841L385.601 451.723L385.611 451.731C385.643 451.763 385.675 451.799 385.705 451.841ZM378.383 450.287C374.75 450.2 371.167 449.943 367.662 449.412C356.371 446.831 346.77 442.078 339.228 434.678C332.765 427.499 327.22 417.151 322.98 402.313C322.519 400.525 322.214 399.521 322.214 399.521C322.216 399.531 322.217 399.54 322.219 399.55C321.69 397.549 321.178 395.459 320.694 393.3C320.694 393.299 320.694 393.302 320.694 393.299C326.977 410.649 334.215 429.031 349.74 439.976C357.874 445.424 367.493 447.114 377.244 447.467C377.632 448.41 378.012 449.351 378.383 450.287Z" fill="#5B24AD"/>
<path d="M383.138 453.037C382.514 452.19 381.919 451.286 381.354 450.324H381.094C380.188 450.321 379.284 450.309 378.383 450.287C378.012 449.351 377.633 448.41 377.245 447.467C375.644 443.571 373.917 439.639 372.233 435.874C374.038 437.837 375.872 439.85 377.685 441.887C379.593 444.029 381.48 446.2 383.292 448.369C383.45 448.558 383.607 448.749 383.764 448.938C384.985 450.623 384.338 452.242 383.138 453.037Z" fill="#5B24AD"/>
<path d="M290.558 164.266C290.558 164.266 284.879 171.577 283.256 179.921C283.256 179.921 259.932 172.597 265.987 158.364C271.666 145.017 290.558 164.266 290.558 164.266Z" fill="#FFCEDA"/>
<path d="M286.35 171.163C286.348 171.163 286.348 171.163 286.348 171.163C286.804 170.249 287.264 169.401 287.706 168.633C287.264 169.401 286.804 170.249 286.35 171.163ZM286.79 160.852C284.174 158.675 280.527 156.011 276.933 154.613C280.525 156.01 284.174 158.675 286.79 160.851V160.852Z" fill="#C2BED2"/>
<path d="M290.558 164.266C290.535 164.241 289.047 162.728 286.79 160.852V160.851C289.064 162.743 290.558 164.266 290.558 164.266Z" fill="#9890B3"/>
<path d="M286.348 171.164C283.598 167.368 276.647 158.731 270.47 158.731C268.544 158.731 266.694 159.571 265.069 161.66V161.659C265.208 160.611 265.504 159.508 265.987 158.368C267.451 154.93 269.791 153.653 272.457 153.653C273.883 153.653 275.402 154.02 276.932 154.613C280.527 156.012 284.173 158.675 286.79 160.853C289.047 162.728 290.534 164.241 290.558 164.267C290.536 164.295 289.234 165.975 287.706 168.634C287.264 169.401 286.803 170.249 286.348 171.164Z" fill="#C29CB8"/>
<path d="M272.452 155.969C272.122 155.969 271.805 155.998 271.501 156.055C270.561 156.232 269.188 156.76 268.119 159.272C267.039 161.809 267.028 164.155 268.082 166.446C270.519 171.742 277.83 175.301 281.618 176.843C283.155 171.509 285.923 166.913 287.517 164.545C283.354 160.682 276.789 155.969 272.452 155.969ZM283.256 182.24C283.023 182.24 282.789 182.205 282.563 182.134C281.972 181.949 268.072 177.494 263.875 168.394C262.261 164.896 262.254 161.215 263.853 157.457C265.641 153.255 268.532 151.897 270.642 151.499C279.349 149.851 290.922 161.328 292.213 162.642C293.026 163.47 293.101 164.771 292.39 165.687C292.336 165.756 287.024 172.687 285.531 180.365C285.407 181.012 285.01 181.576 284.442 181.913C284.079 182.129 283.669 182.24 283.256 182.24Z" fill="#5B24AD"/>
<path d="M400.373 326.613C393.918 326.102 387.658 324.569 381.471 322.771C373.719 320.264 365.907 317.597 358.88 313.426C356.619 312.099 354.196 310.523 351.955 309.143C350.509 308.133 346.812 305.488 345.338 304.437C344.015 303.366 340.331 300.406 339.043 299.35C337.573 298.087 334.551 295.209 333.098 293.892C330.584 291.458 328.101 288.681 325.714 286.128C331.267 290.355 337.061 294.808 343.006 298.466L347.473 301.263C349.033 302.135 352.859 304.274 354.353 305.114C361.338 308.642 368.475 311.918 375.718 314.865C377.86 315.749 380.879 316.737 383.084 317.447C388.827 319.117 394.808 320.588 400.766 321.065C404.394 321.425 404.062 326.763 400.373 326.613Z" fill="#5B24AD"/>
<path d="M269.713 483.371C258.8 478.954 247.715 474.393 238.284 467.246C245.858 471.664 254.303 474.244 262.663 476.717C265.458 477.512 268.293 478.276 271.083 478.94C274.229 479.821 272.82 484.419 269.713 483.371Z" fill="#5B24AD"/>
<path d="M401.57 341.29C372.75 340.099 353.656 326.772 353.656 326.772C315.455 298.954 306.554 235.903 306.554 235.903C333.903 272.882 363.773 294.337 395.771 302.601C396.989 309.403 399.897 315.818 404.826 321.504C403.518 321.384 402.191 321.241 400.857 321.072C400.774 321.062 400.693 321.055 400.612 321.052C394.707 320.563 388.78 319.104 383.085 317.447C380.88 316.737 377.861 315.749 375.719 314.865C368.476 311.918 361.339 308.642 354.355 305.114C352.86 304.274 349.035 302.135 347.474 301.263L343.008 298.466C337.062 294.808 331.268 290.355 325.715 286.128C328.102 288.681 330.585 291.458 333.1 293.892C334.552 295.209 337.575 298.087 339.044 299.35C340.333 300.406 344.016 303.366 345.339 304.437C346.813 305.488 350.51 308.133 351.956 309.143C354.198 310.523 356.62 312.099 358.882 313.426C365.909 317.597 373.72 320.264 381.472 322.771C387.003 324.378 392.592 325.775 398.325 326.417C399.646 331.414 400.727 336.373 401.57 341.29Z" fill="#F9F9F9"/>
<path d="M415.12 321.978C412.631 321.978 410.131 321.893 407.626 321.725C406.707 321.664 405.771 321.59 404.826 321.504C399.897 315.818 396.989 309.403 395.771 302.6C406.083 305.262 416.615 306.552 427.356 306.554C443.893 306.554 460.924 303.491 478.405 297.653C476.705 299.603 474.914 301.472 473.035 303.255C464.986 309.729 455.628 314.698 445.397 317.675C435.57 320.537 425.418 321.978 415.12 321.978Z" fill="#C29CB8"/>
<path d="M473.033 303.255C474.912 301.472 476.704 299.603 478.404 297.653C478.854 297.503 479.298 297.353 479.75 297.198C477.63 299.338 475.388 301.361 473.033 303.255Z" fill="#C2B3CB"/>
<path d="M400.525 326.616C400.474 326.616 400.423 326.615 400.373 326.613C399.688 326.559 399.005 326.493 398.323 326.417C392.59 325.775 387.002 324.378 381.471 322.77C373.719 320.264 365.907 317.597 358.88 313.426C356.619 312.098 354.196 310.523 351.955 309.143C350.509 308.133 346.812 305.488 345.338 304.437C344.015 303.366 340.331 300.406 339.043 299.35C337.573 298.086 334.551 295.209 333.098 293.892C330.584 291.458 328.101 288.681 325.714 286.127C331.267 290.354 337.061 294.807 343.006 298.466L347.473 301.263C349.033 302.135 352.859 304.274 354.353 305.114C361.338 308.642 368.475 311.918 375.718 314.865C377.86 315.748 380.879 316.737 383.084 317.447C388.778 319.103 394.705 320.562 400.611 321.052C400.663 321.057 400.714 321.062 400.766 321.065C402.633 321.251 403.451 322.755 403.303 324.152C402.378 324.056 401.446 323.949 400.508 323.831C400.756 324.737 400.997 325.64 401.231 326.54C401.012 326.589 400.776 326.616 400.525 326.616Z" fill="#5B24AD"/>
<path d="M279.071 195.402C278.789 195.041 278.415 194.748 277.973 194.559C258.814 186.381 242.084 167.926 250.622 146.739C250.819 146.252 251.022 145.79 251.231 145.348C250.246 156.931 252.126 180.778 282.213 189.078C282.213 189.078 280.737 191.77 279.071 195.402Z" fill="#C2BED2"/>
<path d="M276.464 201.67C276.566 200.167 276.706 198.648 276.881 197.118C256.723 188.514 238.836 168.541 248.044 145.694C248.861 143.681 249.879 141.735 251.234 140.038C251.558 139.638 251.892 139.249 252.236 138.879C252.236 138.879 251.566 141.403 251.231 145.348C251.021 145.79 250.819 146.252 250.622 146.74C242.083 167.927 258.814 186.382 277.972 194.559C278.414 194.748 278.789 195.041 279.07 195.402C278.192 197.317 277.261 199.491 276.464 201.67Z" fill="#5B24AD"/>
<path d="M324.67 409.721C323.69 406.54 322.867 403.155 322.218 399.55C322.467 400.49 322.72 401.409 322.978 402.313C323.436 404.084 324.048 406.624 324.67 409.721Z" fill="#5B24AD"/>
<path d="M322.979 402.313C322.721 401.409 322.468 400.49 322.218 399.55C322.216 399.54 322.215 399.532 322.213 399.521C322.213 399.521 322.518 400.525 322.979 402.313Z" fill="#5B24AD"/>
<path d="M306.109 479.397C329.216 468.292 328.94 437.402 326.015 417.455C333 436.797 346.254 449.294 368.6 452.371C351.792 467.634 330.196 476.886 306.109 479.397Z" fill="#F9F9F9"/>
<path d="M294.563 482.879C298.942 482.192 302.77 481.001 306.109 479.397C330.196 476.886 351.792 467.634 368.6 452.371C369.649 452.516 370.72 452.639 371.808 452.742C371.78 452.909 371.749 453.082 371.717 453.263C352.181 471.621 325.532 482.479 294.563 482.879Z" fill="#5B24AD"/>
<path d="M371.81 452.742C370.722 452.639 369.651 452.516 368.602 452.37C346.256 449.294 333.001 436.797 326.016 417.455C325.601 414.629 325.134 412.02 324.672 409.721C327.877 420.154 332.805 428.376 339.229 434.678C347.475 443.836 357.216 447.833 367.662 449.412C369.155 449.754 370.678 450.058 372.23 450.324C372.23 450.324 372.078 451.207 371.81 452.742Z" fill="#5B24AD"/>
<path d="M367.661 449.412C357.215 447.833 347.474 443.836 339.228 434.678C346.769 442.078 356.37 446.831 367.661 449.412Z" fill="#5B24AD"/>
<path d="M193.694 514.919C188.307 508.458 184.768 502.015 182.96 498.314C183.304 497.702 183.641 497.091 183.972 496.481C183.996 496.435 184.019 496.39 184.041 496.343C192.598 480.507 196.783 465.456 196.833 450.335C196.835 450.279 196.833 450.225 196.83 450.169C193.777 395.217 206.903 363.049 239.387 345.901C272.332 333.455 288.529 313.822 290.168 284.262C292.314 304.555 289.573 335.988 259.265 358.138C214.195 391.074 213.9 455.589 270.103 478.385C269.875 478.409 269.652 478.461 269.44 478.539C267.185 477.975 264.911 477.356 262.664 476.717C254.304 474.244 245.859 471.664 238.285 467.246C240.561 468.97 242.932 470.544 245.373 472.001C236.902 467.801 228.749 461.983 223.103 453.958C223.103 453.958 226.505 484.862 205.792 504.029C201.688 507.826 197.55 511.442 193.694 514.919Z" fill="#F9F9F9"/>
<path d="M176.015 546.871C174.04 545.317 172.26 543.494 170.744 541.423C167.488 536.971 163.03 528.069 169.7 518.511C174.976 511.419 179.329 504.791 182.959 498.314C184.767 502.015 188.306 508.458 193.694 514.919C180.754 526.583 170.954 536.688 176.015 546.871Z" fill="#C29CB8"/>
<path d="M181.108 553.162C176.194 550.992 171.809 547.589 168.498 543.064C163.019 535.573 161.034 526.068 167.469 516.852C172.745 509.759 177.52 502.545 181.526 495.155V495.145C189.176 481.023 193.996 466.244 194.052 450.324C191.466 403.758 199.357 363.796 238.245 343.359C266.496 332.724 286.552 315.227 287.49 281.727C287.657 275.838 287.1 269.969 285.941 264.212C286.162 264.822 288.952 272.75 290.168 284.262C288.529 313.822 272.332 333.455 239.387 345.901C206.903 363.049 193.777 395.217 196.83 450.169C196.833 450.225 196.835 450.279 196.833 450.335C196.783 465.456 192.598 480.507 184.041 496.342C184.019 496.39 183.996 496.435 183.972 496.481C183.641 497.091 183.304 497.702 182.96 498.314C179.33 504.791 174.976 511.419 169.7 518.511C163.031 528.069 167.489 536.971 170.744 541.423C172.261 543.494 174.04 545.317 176.015 546.871C177.055 548.959 178.718 551.052 181.108 553.162ZM281.994 482.339L280.407 482.273C278.675 482.051 276.058 481.663 272.854 481.032C272.813 480.141 272.275 479.274 271.084 478.94C270.538 478.81 269.989 478.677 269.44 478.539C269.652 478.461 269.875 478.409 270.102 478.385C273.817 479.892 277.784 481.219 281.994 482.339Z" fill="#5B24AD"/>
<path d="M272.852 481.032C270.437 480.556 267.689 479.942 264.732 479.153L254.337 474.201C254.337 474.201 254.347 474.781 254.285 475.838C251.338 474.74 248.336 473.47 245.372 472.001C242.931 470.544 240.56 468.97 238.284 467.246C245.858 471.664 254.303 474.244 262.663 476.717C264.91 477.356 267.183 477.975 269.438 478.539C269.988 478.677 270.537 478.81 271.083 478.94C272.274 479.274 272.812 480.141 272.852 481.032Z" fill="#5B24AD"/>
<path d="M247.37 536.136C244.738 534.598 242.718 533.068 241.356 531.926C251.603 520.266 261.672 504.566 271.974 484.198C278.959 485.176 285.838 485.659 292.58 485.659C299.46 485.659 306.19 485.156 312.731 484.164C311.674 487.86 309.704 493.865 306.428 500.978C305.09 491.525 298.213 489.223 291.832 489.223C285.774 489.223 280.164 491.298 280.164 491.298C275.778 495.145 271.077 500.673 267.127 508.507C261.044 520.563 253.579 529.718 247.37 536.136Z" fill="#F9F9F9"/>
<path d="M232.991 559.002C232.78 558.936 232.569 558.867 232.36 558.791C228.155 557.278 224.8 553.963 222.364 548.927C227.263 545.676 232.05 541.662 236.786 536.846C238.314 535.294 239.837 533.653 241.357 531.926C242.718 533.068 244.739 534.598 247.37 536.136C242.475 541.196 238.36 544.555 236.315 546.29C232.954 549.148 230.445 554.564 232.991 559.002Z" fill="#C29CB8"/>
<path d="M236.5 562.48C230.598 562.006 224.284 559.088 220 550.43C220.791 549.948 221.579 549.447 222.363 548.927C224.799 553.964 228.154 557.278 232.359 558.791C232.568 558.867 232.779 558.936 232.99 559.002C233.715 560.269 234.854 561.456 236.5 562.48ZM306.552 507.153C306.736 504.817 306.682 502.769 306.427 500.978C309.703 493.865 311.673 487.86 312.731 484.164C313.6 484.031 314.472 483.891 315.335 483.741L306.552 507.153Z" fill="#5B24AD"/>
<path d="M220.001 550.43C219.672 549.762 219.353 549.06 219.048 548.323C225.447 544.643 231.963 539.356 237.454 531.911C251.938 518.017 263.109 502.081 269.841 483.41C270.109 483.49 270.364 483.525 270.603 483.525C271.664 483.525 272.427 482.816 272.722 481.948L280.407 482.273C281.502 482.413 282.244 482.488 282.556 482.516C282.574 482.526 282.584 482.526 282.603 482.526C282.686 482.535 282.723 482.535 282.723 482.535L282.704 482.526C282.466 482.464 282.232 482.403 281.994 482.339L282.018 482.341C282.036 482.341 282.055 482.341 282.073 482.349C286.321 482.823 290.391 482.999 294.147 482.999C307.192 482.99 316.456 480.755 316.456 480.755L315.336 483.741C314.472 483.891 313.6 484.031 312.732 484.164C306.19 485.156 299.46 485.659 292.58 485.659C285.838 485.659 278.96 485.176 271.975 484.198C261.672 504.565 251.604 520.266 241.357 531.926C239.837 533.653 238.314 535.295 236.786 536.847C232.049 541.662 227.262 545.677 222.364 548.927C221.58 549.447 220.792 549.948 220.001 550.43Z" fill="#5B24AD"/>
<path d="M270.604 483.525C270.365 483.525 270.11 483.489 269.842 483.41C270.027 482.892 270.211 482.371 270.392 481.85L272.723 481.948C272.428 482.816 271.665 483.525 270.604 483.525Z" fill="#5B24AD"/>
<path d="M282.724 482.534C282.724 482.534 282.687 482.534 282.604 482.526C282.586 482.526 282.576 482.526 282.557 482.516C282.245 482.487 281.503 482.413 280.408 482.273L281.995 482.339C282.233 482.403 282.468 482.464 282.706 482.526L282.724 482.534Z" fill="#5B24AD"/>
<path d="M230.822 534.924C227.845 534.816 225.006 534.424 222.315 533.795C227.177 528.072 232.227 521.423 238.284 514.225C251.236 498.834 253.743 482.768 254.224 476.709C258.334 478.677 262.55 480.452 266.763 482.172C255.285 504.79 244.169 521.413 232.819 532.945C232.154 533.621 231.488 534.281 230.822 534.924Z" fill="#F9F9F9"/>
<path d="M195.049 553.146C206.31 550.595 214.043 543.534 222.317 533.795C225.007 534.424 227.846 534.816 230.823 534.924C221.77 543.644 212.561 549.242 202.739 552.005C200.192 552.72 197.608 553.095 195.049 553.146Z" fill="#C29CB8"/>
<path d="M194.176 555.925C189.73 555.925 188.974 554.508 194.976 553.162C195.001 553.157 195.025 553.15 195.048 553.145C197.607 553.095 200.191 552.72 202.738 552.005C212.56 549.242 221.77 543.644 230.823 534.923C231.489 534.281 232.155 533.621 232.82 532.945C244.17 521.412 255.286 504.789 266.764 482.172C267.626 482.524 268.49 482.875 269.35 483.224C266.447 487.136 257.338 499.881 240.41 527.515C239.466 529.058 238.477 530.521 237.453 531.911C231.71 537.42 225.449 542.605 218.735 547.515C218.773 547.626 218.81 547.738 218.855 547.849C218.919 548.009 218.983 548.166 219.048 548.323C208.984 554.11 199.213 555.925 194.176 555.925Z" fill="#5B24AD"/>
<path d="M269.351 483.225C268.49 482.875 267.627 482.525 266.765 482.172C262.551 480.452 258.336 478.677 254.226 476.709C254.251 476.392 254.271 476.1 254.286 475.838C257.909 477.189 261.45 478.277 264.734 479.153L270.391 481.85C270.391 481.85 270.052 482.278 269.351 483.225Z" fill="#5B24AD"/>
<path d="M264.734 479.153C261.45 478.277 257.909 477.189 254.286 475.838C254.349 474.781 254.338 474.201 254.338 474.201L264.734 479.153Z" fill="#5B24AD"/>
<path d="M219.048 548.323C218.984 548.166 218.92 548.009 218.856 547.849C218.811 547.738 218.773 547.626 218.736 547.515C225.45 542.605 231.711 537.42 237.454 531.911C231.964 539.356 225.448 544.643 219.048 548.323Z" fill="#5B24AD"/>
<path d="M447.311 183.786C453.844 190.988 454.805 200.759 449.457 205.609C444.11 210.46 434.478 208.55 427.945 201.346C421.413 194.144 420.451 184.373 425.798 179.523C431.145 174.674 440.777 176.581 447.311 183.786Z" fill="#5B24AD"/>
<path d="M425.583 189.234C426.507 192.135 428.914 193.957 430.958 193.306C433.003 192.653 433.908 189.774 432.984 186.872C432.058 183.973 429.651 182.15 427.608 182.801C425.564 183.453 424.657 186.333 425.583 189.234Z" fill="#FFEE56"/>
<path d="M430.359 177.428C432.248 175.991 433.231 173.417 432.633 170.975C432.51 170.536 432.774 170.079 433.218 169.975C433.542 169.897 433.867 170.029 434.053 170.282C436.232 173.23 436.133 177.523 434.262 180.731C432.015 184.298 427.215 180.238 430.359 177.428Z" fill="#5B24AD"/>
<path d="M435.825 178.764C437.714 177.325 438.697 174.753 438.097 172.31C437.974 171.872 438.238 171.415 438.682 171.31C439.006 171.233 439.331 171.364 439.517 171.616C441.696 174.566 441.598 178.858 439.728 182.067C437.479 185.632 432.679 181.574 435.825 178.764Z" fill="#5B24AD"/>
<path d="M401.298 224.392C406.849 234.252 405.415 245.583 398.096 249.704C390.779 253.823 380.347 249.171 374.797 239.312C369.246 229.453 370.68 218.121 377.999 214.002C385.317 209.881 395.748 214.535 401.298 224.392Z" fill="#5B24AD"/>
<path d="M375.244 224.961C375.544 228.491 377.805 231.18 380.291 230.969C382.779 230.756 384.55 227.724 384.25 224.195C383.949 220.666 381.691 217.976 379.203 218.188C376.717 218.399 374.944 221.432 375.244 224.961Z" fill="#FFEE56"/>
<path d="M383.713 212.806C386.226 211.661 388.007 208.996 387.958 206.071C387.93 205.543 388.35 205.092 388.879 205.087C389.267 205.082 389.603 205.317 389.748 205.651C391.405 209.449 390.313 214.154 387.512 217.301C386.452 218.753 384.366 219.06 382.998 217.856C381.336 216.475 381.751 213.67 383.713 212.806Z" fill="#5B24AD"/>
<path d="M389.569 215.733C392.084 214.589 393.863 211.922 393.814 208.997C393.787 208.469 394.206 208.019 394.737 208.014C395.123 208.009 395.459 208.243 395.604 208.577C397.26 212.376 396.171 217.08 393.369 220.228C392.308 221.68 390.222 221.987 388.854 220.783C387.192 219.403 387.609 216.596 389.569 215.733Z" fill="#5B24AD"/>
</svg>
